<?xml version="1.0" standalone="no"?>
<!DOCTYPE svg PUBLIC "-//W3C//DTD SVG 20010904//EN"
 "http://www.w3.org/TR/2001/REC-SVG-20010904/DTD/svg10.dtd">
<svg version="1.0" xmlns="http://www.w3.org/2000/svg"
 width="240" height="140" viewBox="0 0 654.000000 382.000000"
 preserveAspectRatio="xMidYMid meet">

<g transform="translate(0.000000,382.000000) scale(0.100000,-0.100000)"
fill="#000000" stroke="none">
<path d="M1509 3065 l-43 -96 -57 7 -56 6 -13 -53 c-6 -30 -16 -69 -22 -87
l-10 -32 -79 6 c-89 8 -82 13 -95 -81 l-9 -60 -265 -5 -265 -5 -3 -774 c-1
-433 2 -779 7 -784 4 -4 129 -60 277 -123 148 -63 334 -143 414 -179 258 -113
454 -194 461 -189 4 2 22 39 39 82 18 42 37 83 43 90 7 8 29 12 66 10 l55 -3
17 72 c9 39 20 77 24 83 5 8 31 9 84 4 l78 -6 6 38 c4 22 7 53 7 71 0 21 6 36
18 42 12 6 105 8 249 4 126 -3 242 -3 256 1 l27 6 0 775 0 774 -32 17 c-17 9
-160 72 -317 139 -157 67 -402 173 -543 234 -142 61 -261 111 -266 111 -5 0
-29 -43 -53 -95z m278 -19 c109 -46 254 -107 323 -136 134 -55 270 -120 270
-128 0 -11 -116 14 -500 108 -85 21 -200 48 -255 60 -55 13 -106 28 -112 34
-10 9 -6 26 19 79 17 37 37 67 44 67 8 0 102 -38 211 -84z m-327 -104 c25 -6
88 -20 140 -32 52 -12 131 -30 175 -40 44 -10 114 -26 155 -35 164 -37 246
-58 270 -72 23 -13 17 -13 -60 -8 -190 12 -784 75 -792 83 -8 8 11 91 25 110
5 7 17 11 26 8 9 -2 36 -9 61 -14z m-132 -162 c37 -6 198 -26 357 -46 160 -20
313 -42 340 -49 l50 -13 -55 -2 c-30 -2 -102 -2 -160 -2 -58 0 -239 1 -402 1
l-298 1 0 44 c0 68 6 76 57 76 24 0 74 -5 111 -10z m1346 -146 c14 -6 16 -80
16 -738 0 -402 -4 -737 -8 -744 -7 -10 -219 -13 -1023 -15 -558 -1 -1020 2
-1026 6 -19 12 -19 1483 0 1490 18 8 2022 8 2041 1z m-526 -1539 c5 -6 5 -33
-1 -62 l-9 -53 -41 0 c-23 0 -91 7 -152 15 -232 31 -346 46 -513 65 -95 11
-179 23 -185 27 -18 12 207 19 570 18 202 0 325 -4 331 -10z m-813 -90 c149
-16 282 -29 487 -49 70 -7 131 -15 135 -19 4 -4 0 -33 -8 -65 -17 -68 -2 -67
-219 -16 -80 19 -221 52 -315 74 -225 51 -338 80 -344 85 -9 10 128 4 264 -10z
m-211 -50 c78 -19 240 -57 361 -85 238 -55 325 -78 325 -86 0 -14 -72 -144
-80 -144 -8 0 -161 64 -600 252 -102 44 -189 83 -194 89 -19 18 48 9 188 -26z"/>
<path d="M1349 2418 c-4 -45 4 -825 8 -832 8 -11 306 0 353 14 20 5 55 29 78
53 130 132 123 435 -12 559 -52 47 -102 56 -183 32 -23 -6 -23 -5 -23 78 0 52
-5 89 -12 96 -17 17 -208 17 -209 0z m306 -438 c21 -40 19 -112 -2 -139 -10
-12 -31 -23 -48 -24 -28 -2 -30 1 -36 43 -8 51 -1 119 14 138 18 23 55 14 72
-18z"/>
<path d="M847 2236 c-21 -8 -47 -22 -57 -31 -32 -29 -59 -96 -66 -165 -13
-139 35 -253 123 -286 44 -17 48 -17 96 0 61 22 74 13 57 -39 -28 -84 -145
-81 -245 6 l-35 31 0 -128 c0 -71 4 -134 8 -139 13 -19 80 -54 134 -70 28 -8
85 -15 125 -15 90 0 140 22 182 80 51 70 56 115 56 455 l0 310 -170 2 c-124 2
-180 -1 -208 -11z m152 -185 c11 -7 12 -23 5 -82 -10 -82 -24 -94 -69 -65 -21
14 -25 25 -25 63 0 69 45 111 89 84z"/>
<path d="M2947 2100 c-44 -34 -60 -77 -61 -155 0 -104 37 -162 111 -171 71 -9
133 56 133 141 l0 36 -52 -3 c-39 -2 -53 -7 -53 -18 0 -10 12 -16 33 -18 42
-4 43 -33 3 -73 -36 -35 -61 -37 -98 -5 -25 22 -28 31 -31 105 -4 78 -3 81 26
111 17 16 40 30 52 30 21 0 56 -30 76 -65 17 -30 34 -8 34 46 0 49 0 49 -32
49 -18 0 -51 2 -73 6 -32 4 -46 1 -68 -16z"/>
<path d="M4572 2112 c-9 -7 -12 -47 -10 -168 l3 -159 76 -3 c70 -3 79 -1 108
23 37 32 42 79 11 115 -24 27 -24 38 -5 64 20 27 19 69 -2 95 -27 33 -147 54
-181 33z m136 -54 c7 -7 12 -24 12 -38 0 -37 -18 -50 -67 -50 l-43 0 0 50 0
50 43 0 c24 0 48 -5 55 -12z m12 -148 c24 -24 25 -38 5 -66 -14 -22 -74 -38
-101 -27 -14 5 -21 93 -7 106 15 15 83 7 103 -13z"/>
<path d="M5275 2108 c-2 -7 -6 -31 -7 -53 -2 -33 -7 -41 -25 -43 -15 -2 -23
-10 -23 -22 0 -12 8 -20 23 -22 20 -3 23 -10 28 -75 6 -80 16 -97 65 -113 39
-13 78 1 102 37 13 20 12 23 -1 29 -9 3 -29 -4 -45 -16 -24 -18 -33 -20 -51
-11 -11 7 -22 17 -23 24 -5 46 -6 76 -2 100 5 25 9 27 50 27 37 0 44 3 44 20
0 17 -7 20 -45 20 -36 0 -45 4 -46 18 -2 52 -15 92 -29 92 -6 0 -13 -6 -15
-12z"/>
<path d="M3294 2011 c-78 -19 -72 -42 10 -39 65 3 95 -9 82 -31 -4 -6 -19 -11
-34 -11 -78 0 -132 -37 -132 -91 0 -53 32 -65 160 -57 l55 3 3 65 c4 87 -4
127 -31 144 -30 19 -76 26 -113 17z m96 -137 c0 -29 -20 -52 -50 -59 -60 -13
-96 19 -60 55 26 26 110 29 110 4z"/>
<path d="M4280 2007 c-38 -13 -49 -44 -15 -39 59 7 108 4 115 -8 12 -20 3 -30
-29 -30 -36 0 -91 -18 -113 -38 -25 -21 -23 -74 2 -97 12 -11 34 -18 53 -17
17 1 57 3 87 4 l55 3 3 65 c4 87 -4 127 -31 144 -33 22 -88 27 -127 13z m107
-134 c8 -21 -39 -63 -72 -63 -23 0 -55 23 -55 40 0 35 115 56 127 23z"/>
<path d="M5623 2009 c-88 -26 -107 -163 -29 -214 56 -37 156 -25 164 19 3 15
0 18 -19 12 -76 -20 -97 -19 -124 8 -14 14 -23 31 -20 36 3 6 47 10 96 10 101
0 109 6 85 63 -24 58 -88 85 -153 66z m95 -51 c28 -28 13 -38 -53 -38 -47 0
-65 4 -65 13 0 24 23 37 65 37 23 0 46 -5 53 -12z"/>
<path d="M5947 2010 c-43 -13 -57 -29 -57 -65 0 -41 14 -52 76 -64 70 -14 84
-21 84 -42 0 -26 -39 -34 -101 -19 -37 9 -54 9 -62 1 -17 -17 2 -30 66 -42 93
-17 147 10 147 74 0 34 -17 45 -91 60 -52 11 -64 16 -64 32 0 18 7 20 68 19
58 0 67 2 67 17 0 10 -8 20 -17 23 -41 12 -90 14 -116 6z"/>
<path d="M3555 2001 c-3 -2 -5 -53 -5 -113 0 -101 1 -108 20 -108 18 0 20 7
20 69 0 77 12 121 34 121 21 0 26 -23 26 -111 0 -72 2 -79 20 -79 18 0 20 7
20 83 0 88 9 114 34 104 13 -5 16 -23 16 -97 0 -83 1 -90 20 -90 19 0 20 7 20
99 0 55 -3 106 -6 115 -7 18 -59 22 -69 6 -4 -6 -13 -7 -23 -1 -17 9 -119 11
-127 2z"/>
<path d="M3889 1996 c-6 -43 -5 -196 1 -206 5 -7 15 -10 24 -7 12 5 16 25 18
94 3 80 5 88 23 88 18 0 20 -8 23 -92 2 -85 4 -93 22 -93 18 0 20 7 20 84 0
63 4 87 15 96 25 21 33 1 38 -90 4 -74 7 -85 23 -85 17 0 19 10 22 89 4 129 0
133 -127 133 -66 0 -102 -4 -102 -11z"/>
<path d="M4890 2001 c0 -5 18 -58 40 -118 22 -59 40 -116 40 -125 0 -24 -28
-48 -56 -48 -17 0 -24 -5 -24 -20 0 -16 7 -20 34 -20 19 0 43 8 55 18 12 10
44 78 76 166 30 82 55 150 55 152 0 2 -11 4 -24 4 -20 0 -26 -10 -47 -77 -14
-42 -30 -78 -37 -81 -12 -4 -27 26 -57 111 -12 34 -22 47 -36 47 -10 0 -19 -4
-19 -9z"/>
</g>
</svg>
